<svg width="35" height="35" viewBox="0 0 35 35" fill="none" xmlns="http://www.w3.org/2000/svg">
<path d="M26.2506 10.2813C26.2506 9.89448 26.097 9.52354 25.8235 9.25005C25.55 8.97656 25.1791 8.82292 24.7923 8.82292L13.1256 8.75C12.7389 8.75 12.3679 8.90365 12.0944 9.17714C11.821 9.45063 11.6673 9.82156 11.6673 10.2083C11.6673 10.5951 11.821 10.966 12.0944 11.2395C12.3679 11.513 12.7389 11.6667 13.1256 11.6667H21.234L9.17356 23.7563C9.03687 23.8918 8.92838 24.0531 8.85434 24.2308C8.78031 24.4085 8.74219 24.5991 8.74219 24.7917C8.74219 24.9842 8.78031 25.1748 8.85434 25.3525C8.92838 25.5302 9.03687 25.6915 9.17356 25.8271C9.30913 25.9638 9.47042 26.0723 9.64814 26.1463C9.82585 26.2203 10.0165 26.2585 10.209 26.2585C10.4015 26.2585 10.5921 26.2203 10.7698 26.1463C10.9475 26.0723 11.1088 25.9638 11.2444 25.8271L23.334 13.7375V21.875C23.334 22.2618 23.4876 22.6327 23.7611 22.9062C24.0346 23.1797 24.4055 23.3333 24.7923 23.3333C25.1791 23.3333 25.55 23.1797 25.8235 22.9062C26.097 22.6327 26.2506 22.2618 26.2506 21.875V10.2813Z" fill="#5F401A"/>
</svg>
