<svg width="30" height="30" viewBox="0 0 30 30" fill="none" xmlns="http://www.w3.org/2000/svg">
<path d="M20.7691 29.1416C20.3824 29.1416 20.0114 28.988 19.7379 28.7145C19.4645 28.441 19.3108 28.07 19.3108 27.6833V23.8916C19.3561 23.4555 19.3095 23.0147 19.1738 22.5977C19.0382 22.1807 18.8166 21.7968 18.5233 21.4708C18.3418 21.2739 18.2179 21.0308 18.1654 20.7681C18.1129 20.5055 18.1337 20.2334 18.2256 19.9819C18.3175 19.7303 18.4769 19.5089 18.6864 19.3419C18.8958 19.1749 19.1472 19.0689 19.4129 19.0354C22.9712 18.6124 26.2525 17.4749 26.2525 11.3062C26.2536 10.1542 25.9136 9.0277 25.2754 8.06869C24.6865 7.18585 24.4714 6.10557 24.6775 5.06452C24.8089 4.3854 24.8089 3.68738 24.6775 3.00827C23.5855 3.37748 22.5573 3.91371 21.6296 4.59785C21.4542 4.72242 21.2534 4.80662 21.0416 4.84444C20.8298 4.88226 20.6122 4.87276 20.4046 4.8166C17.7728 4.07294 14.9864 4.07294 12.3546 4.8166C12.1469 4.87276 11.9293 4.88226 11.7176 4.84444C11.5058 4.80662 11.305 4.72242 11.1296 4.59785C10.1961 3.90578 9.15706 3.36901 8.05248 3.00827C7.91379 3.68667 7.91379 4.38612 8.05248 5.06452C8.24364 6.11868 8.01888 7.2059 7.42539 8.09785C6.78994 9.06359 6.45035 10.1939 6.44831 11.3499C6.44831 17.0229 9.18998 18.5395 13.3025 19.0645C13.5716 19.0979 13.826 19.2057 14.0373 19.3757C14.2485 19.5457 14.4082 19.7713 14.4983 20.027C14.5831 20.2752 14.5994 20.5416 14.5455 20.7983C14.4916 21.0549 14.3695 21.2923 14.1921 21.4854C13.9084 21.7885 13.6907 22.1472 13.5526 22.5388C13.4146 22.9304 13.3592 23.3463 13.39 23.7604V27.6833C13.39 28.07 13.2363 28.441 12.9628 28.7145C12.6894 28.988 12.3184 29.1416 11.9316 29.1416C11.5449 29.1416 11.1739 28.988 10.9004 28.7145C10.627 28.441 10.4733 28.07 10.4733 27.6833V26.852C9.0403 27.0168 7.58877 26.8248 6.24791 26.293C4.90705 25.7613 3.71845 24.9063 2.78789 23.8041C2.30957 23.2739 1.73568 22.8386 1.09623 22.5208C0.910462 22.4729 0.735945 22.3889 0.582642 22.2736C0.429339 22.1582 0.300251 22.0139 0.20275 21.8486C0.105248 21.6834 0.041242 21.5006 0.0143858 21.3107C-0.0124704 21.1207 -0.00165052 20.9274 0.0462272 20.7416C0.094105 20.5558 0.178103 20.3813 0.293426 20.228C0.408749 20.0747 0.553138 19.9456 0.718349 19.8481C0.883559 19.7506 1.06636 19.6866 1.2563 19.6598C1.44625 19.6329 1.63963 19.6437 1.82539 19.6916C2.94722 20.1003 3.9496 20.7819 4.74206 21.6749C6.20039 23.1333 7.65873 24.4166 10.4296 23.8916C10.3808 23.1086 10.4951 22.324 10.765 21.5874C7.76081 20.8291 3.47331 18.6708 3.47331 11.3791C3.46947 9.6519 3.97689 7.96219 4.93164 6.52285C5.10898 6.25715 5.1769 5.93324 5.12123 5.61869C4.82654 4.04452 4.99368 2.41872 5.60248 0.937436C5.6852 0.739925 5.8104 0.563055 5.96919 0.41939C6.12797 0.275726 6.31645 0.168792 6.52123 0.106185C7.01706 -0.039648 8.79623 -0.331315 12.165 1.85619C14.892 1.19994 17.7358 1.19994 20.4629 1.85619C23.8316 -0.331315 25.6108 -0.0542313 26.0921 0.106185C26.2968 0.168792 26.4853 0.275726 26.6441 0.41939C26.8029 0.563055 26.9281 0.739925 27.0108 0.937436C27.6208 2.42353 27.788 4.05434 27.4921 5.63327C27.4622 5.77553 27.461 5.92232 27.4886 6.06504C27.5161 6.20777 27.5718 6.34357 27.6525 6.46452C28.61 7.90799 29.1175 9.60318 29.1108 11.3354C29.1108 18.7291 24.8525 20.8729 21.8191 21.5437C22.0864 22.3262 22.1954 23.1541 22.14 23.9791V27.6833C22.1406 28.0553 21.9991 28.4136 21.7442 28.6847C21.4894 28.9558 21.1406 29.1193 20.7691 29.1416Z" fill="#5F401A"/>
</svg>
