<svg width="35" height="35" viewBox="0 0 35 35" fill="none" xmlns="http://www.w3.org/2000/svg">
<path d="M29.1686 32.0835H26.7332C25.9597 32.0835 25.2178 31.7762 24.6708 31.2292C24.1238 30.6822 23.8165 29.9403 23.8165 29.1668V21.3355C23.8296 21.0284 23.7367 20.7261 23.5536 20.4792C23.3704 20.2324 23.108 20.0559 22.8103 19.9793C22.6371 19.9529 22.4602 19.964 22.2917 20.0118C22.1231 20.0596 21.9668 20.143 21.8332 20.2564C21.6957 20.3731 21.5854 20.5183 21.5098 20.682C21.4342 20.8457 21.3953 21.024 21.3957 21.2043V29.1668C21.3957 29.9403 21.0884 30.6822 20.5414 31.2292C19.9945 31.7762 19.2526 32.0835 18.479 32.0835H16.0436C15.2701 32.0835 14.5282 31.7762 13.9812 31.2292C13.4342 30.6822 13.127 29.9403 13.127 29.1668V21.2043C13.127 19.9595 13.3721 18.7268 13.8485 17.5768C14.3249 16.4267 15.0231 15.3817 15.9033 14.5015C16.7836 13.6213 17.8285 12.9231 18.9786 12.4467C20.1287 11.9703 21.3613 11.7251 22.6061 11.7251C23.8509 11.7251 25.0836 11.9703 26.2336 12.4467C27.3837 12.9231 28.4287 13.6213 29.3089 14.5015C30.1891 15.3817 30.8874 16.4267 31.3637 17.5768C31.8401 18.7268 32.0853 19.9595 32.0853 21.2043V29.1668C32.0853 29.9403 31.778 30.6822 31.231 31.2292C30.684 31.7762 29.9422 32.0835 29.1686 32.0835ZM22.6061 17.048C22.8344 17.0336 23.0633 17.0336 23.2915 17.048C24.2706 17.2364 25.1521 17.7634 25.7815 18.5368C26.4108 19.3101 26.7477 20.2803 26.7332 21.2772V29.1668H29.1686V21.2043C29.1686 19.4638 28.4772 17.7946 27.2465 16.5639C26.0158 15.3332 24.3466 14.6418 22.6061 14.6418C20.8656 14.6418 19.1964 15.3332 17.9657 16.5639C16.735 17.7946 16.0436 19.4638 16.0436 21.2043V29.1668H18.479V21.2043C18.479 20.107 18.9129 19.0543 19.686 18.2756C20.4592 17.497 21.5089 17.0557 22.6061 17.048Z" fill="#5F401A"/>
<path d="M8.7513 32.0834H5.83464C5.06109 32.0834 4.31922 31.7761 3.77224 31.2291C3.22526 30.6822 2.91797 29.9403 2.91797 29.1667V14.5834C2.91797 13.8099 3.22526 13.068 3.77224 12.521C4.31922 11.974 5.06109 11.6667 5.83464 11.6667H8.7513C9.52485 11.6667 10.2667 11.974 10.8137 12.521C11.3607 13.068 11.668 13.8099 11.668 14.5834V29.1667C11.668 29.9403 11.3607 30.6822 10.8137 31.2291C10.2667 31.7761 9.52485 32.0834 8.7513 32.0834ZM5.83464 14.5834V29.1667H8.7513V14.5834H5.83464Z" fill="#5F401A"/>
<path d="M7.29297 10.2084C6.42768 10.2084 5.58182 9.95182 4.86235 9.47109C4.14289 8.99035 3.58213 8.30707 3.251 7.50765C2.91986 6.70822 2.83322 5.82855 3.00204 4.97989C3.17085 4.13122 3.58752 3.35167 4.19938 2.73981C4.81123 2.12796 5.59078 1.71128 6.43945 1.54247C7.28812 1.37366 8.16778 1.4603 8.96721 1.79143C9.76664 2.12257 10.4499 2.68332 10.9306 3.40279C11.4114 4.12225 11.668 4.96811 11.668 5.83341C11.668 6.99373 11.207 8.10653 10.3866 8.927C9.56609 9.74747 8.45329 10.2084 7.29297 10.2084ZM7.29297 4.37507C7.00454 4.37507 6.72259 4.4606 6.48276 4.62085C6.24294 4.78109 6.05602 5.00885 5.94565 5.27533C5.83527 5.5418 5.80639 5.83502 5.86266 6.11791C5.91893 6.4008 6.05782 6.66065 6.26177 6.8646C6.46573 7.06855 6.72557 7.20745 7.00846 7.26372C7.29135 7.31999 7.58457 7.29111 7.85105 7.18073C8.11753 7.07035 8.34529 6.88343 8.50553 6.64361C8.66577 6.40379 8.7513 6.12184 8.7513 5.83341C8.7513 5.44663 8.59766 5.0757 8.32417 4.80221C8.05068 4.52872 7.67974 4.37507 7.29297 4.37507Z" fill="#5F401A"/>
</svg>
