<svg width="38" height="38" viewBox="0 0 38 38" fill="none" xmlns="http://www.w3.org/2000/svg">
<path d="M23.7474 25.3333H14.2474C13.8275 25.3333 13.4247 25.5001 13.1278 25.797C12.8309 26.094 12.6641 26.4967 12.6641 26.9166C12.6641 27.3365 12.8309 27.7393 13.1278 28.0362C13.4247 28.3331 13.8275 28.4999 14.2474 28.4999H23.7474C24.1673 28.4999 24.57 28.3331 24.867 28.0362C25.1639 27.7393 25.3307 27.3365 25.3307 26.9166C25.3307 26.4967 25.1639 26.094 24.867 25.797C24.57 25.5001 24.1673 25.3333 23.7474 25.3333Z" fill="#5F401A"/>
<path d="M14.2474 22.1667H18.9974C19.4173 22.1667 19.82 21.9999 20.117 21.7029C20.4139 21.406 20.5807 21.0033 20.5807 20.5833C20.5807 20.1634 20.4139 19.7607 20.117 19.4637C19.82 19.1668 19.4173 19 18.9974 19H14.2474C13.8275 19 13.4247 19.1668 13.1278 19.4637C12.8309 19.7607 12.6641 20.1634 12.6641 20.5833C12.6641 21.0033 12.8309 21.406 13.1278 21.7029C13.4247 21.9999 13.8275 22.1667 14.2474 22.1667Z" fill="#5F401A"/>
<path d="M31.2537 13.1892L22.6404 3.68917C22.4923 3.52515 22.3116 3.39392 22.1098 3.30393C21.908 3.21395 21.6896 3.16719 21.4687 3.16667H10.3854C9.8593 3.16039 9.33715 3.2578 8.84874 3.45334C8.36033 3.64887 7.91521 3.9387 7.53882 4.30628C7.16242 4.67385 6.86212 5.11197 6.65506 5.59561C6.448 6.07925 6.33823 6.59894 6.33203 7.125V30.875C6.33823 31.4011 6.448 31.9208 6.65506 32.4044C6.86212 32.888 7.16242 33.3262 7.53882 33.6937C7.91521 34.0613 8.36033 34.3511 8.84874 34.5467C9.33715 34.7422 9.8593 34.8396 10.3854 34.8333H27.612C28.1381 34.8396 28.6602 34.7422 29.1487 34.5467C29.6371 34.3511 30.0822 34.0613 30.4586 33.6937C30.835 33.3262 31.1353 32.888 31.3423 32.4044C31.5494 31.9208 31.6592 31.4011 31.6654 30.875V14.25C31.6643 13.8576 31.5176 13.4795 31.2537 13.1892ZM22.1654 7.91667L26.5037 12.6667H23.337C23.1712 12.6567 23.0091 12.6137 22.86 12.5404C22.711 12.467 22.5781 12.3647 22.469 12.2394C22.3599 12.1141 22.2769 11.9684 22.2248 11.8107C22.1726 11.653 22.1524 11.4864 22.1654 11.3208V7.91667ZM27.612 31.6667H10.3854C10.2751 31.6731 10.1647 31.6577 10.0604 31.6213C9.95615 31.585 9.86007 31.5284 9.7777 31.4549C9.69533 31.3813 9.62828 31.2923 9.58041 31.1927C9.53253 31.0932 9.50476 30.9853 9.4987 30.875V7.125C9.50476 7.01474 9.53253 6.90676 9.58041 6.80725C9.62828 6.70774 9.69533 6.61866 9.7777 6.54512C9.86007 6.47157 9.95615 6.415 10.0604 6.37866C10.1647 6.34232 10.2751 6.32692 10.3854 6.33333H18.9987V11.3208C18.9731 12.4872 19.41 13.6162 20.2139 14.4616C21.0177 15.3071 22.1234 15.8002 23.2895 15.8333H28.4987V30.875C28.4926 30.9853 28.4649 31.0932 28.417 31.1927C28.3691 31.2923 28.3021 31.3813 28.2197 31.4549C28.1373 31.5284 28.0412 31.585 27.937 31.6213C27.8327 31.6577 27.7223 31.6731 27.612 31.6667Z" fill="#5F401A"/>
</svg>
