<svg width="29" height="33" viewBox="0 0 29 33" fill="none" xmlns="http://www.w3.org/2000/svg">
<path d="M14.501 16.3107C18.4528 16.3107 21.6564 13.1071 21.6564 9.15534C21.6564 5.20356 18.4528 2 14.501 2C10.5493 2 7.3457 5.20356 7.3457 9.15534C7.3457 13.1071 10.5493 16.3107 14.501 16.3107Z" stroke="#5F401A" stroke-width="3"/>
<path d="M21.6553 19.1729H22.1586C24.3237 19.1729 26.15 20.7851 26.4186 22.9336L26.9775 27.4042C27.191 29.1125 25.859 30.6214 24.1374 30.6214H4.86255C3.14099 30.6214 1.80899 29.1125 2.02252 27.4042L2.58135 22.9336C2.84991 20.7851 4.67625 19.1729 6.84142 19.1729H7.34465" stroke="#5F401A" stroke-width="3" stroke-linecap="round" stroke-linejoin="round"/>
</svg>
