<svg width="32" height="31" viewBox="0 0 32 31" fill="none" xmlns="http://www.w3.org/2000/svg">
<path d="M2 29.2579H30" stroke="#5F401A" stroke-width="3" stroke-miterlimit="10" stroke-linecap="round" stroke-linejoin="round"/>
<path d="M3.32812 29.258L3.39812 12.4159C3.39812 11.5619 3.80412 10.75 4.47612 10.218L14.2762 2.588C15.2842 1.804 16.6981 1.804 17.7201 2.588L27.5202 10.204C28.2062 10.736 28.5982 11.5479 28.5982 12.4159V29.258" stroke="#5F401A" stroke-width="3" stroke-miterlimit="10" stroke-linejoin="round"/>
<path d="M17.4 22.2579H14.6C13.438 22.2579 12.5 23.1959 12.5 24.3579V29.2579H19.5V24.3579C19.5 23.1959 18.562 22.2579 17.4 22.2579Z" stroke="#5F401A" stroke-width="3" stroke-miterlimit="10" stroke-linejoin="round"/>
<path d="M12.4988 17.7079H9.69883C8.92883 17.7079 8.29883 17.0779 8.29883 16.3079V14.2079C8.29883 13.4379 8.92883 12.8079 9.69883 12.8079H12.4988C13.2688 12.8079 13.8988 13.4379 13.8988 14.2079V16.3079C13.8988 17.0779 13.2688 17.7079 12.4988 17.7079Z" stroke="#5F401A" stroke-width="3" stroke-miterlimit="10" stroke-linejoin="round"/>
<path d="M22.2996 17.7079H19.4996C18.7296 17.7079 18.0996 17.0779 18.0996 16.3079V14.2079C18.0996 13.4379 18.7296 12.8079 19.4996 12.8079H22.2996C23.0696 12.8079 23.6996 13.4379 23.6996 14.2079V16.3079C23.6996 17.0779 23.0696 17.7079 22.2996 17.7079Z" stroke="#5F401A" stroke-width="3" stroke-miterlimit="10" stroke-linejoin="round"/>
<path d="M25.8016 8.25798L25.7596 4.05798H19.5996" stroke="#5F401A" stroke-width="3" stroke-miterlimit="10" stroke-linecap="round" stroke-linejoin="round"/>
</svg>
