<svg width="15" height="18" viewBox="0 0 15 18" fill="none" xmlns="http://www.w3.org/2000/svg">
<path d="M7.49486 10.3308C5.79169 10.3308 4.40039 8.94754 4.40039 7.2364C4.40039 5.5253 5.79169 4.14999 7.49486 4.14999C9.198 4.14999 10.5893 5.5333 10.5893 7.2444C10.5893 8.95554 9.198 10.3308 7.49486 10.3308ZM7.49486 5.34939C6.45538 5.34939 5.59978 6.19696 5.59978 7.2444C5.59978 8.29187 6.44739 9.13944 7.49486 9.13944C8.54233 9.13944 9.3899 8.29187 9.3899 7.2444C9.3899 6.19696 8.53433 5.34939 7.49486 5.34939Z" fill="#5F401A"/>
<path d="M7.49753 17.1993C6.31413 17.1993 5.12273 16.7515 4.19519 15.864C1.83639 13.5931 -0.770298 9.97096 0.213205 5.66114C1.10076 1.75112 4.51503 0 7.49753 0H7.50553C10.488 0 13.9023 1.75112 14.7899 5.66914C15.7654 9.97896 13.1587 13.5931 10.7999 15.864C9.87233 16.7515 8.68094 17.1993 7.49753 17.1993ZM7.49753 1.19939C5.1707 1.19939 2.18021 2.43877 1.38861 5.92501C0.525048 9.69111 2.89185 12.9375 5.03477 14.9924C6.41808 16.3278 8.58498 16.3278 9.96829 14.9924C12.1032 12.9375 14.47 9.69111 13.6224 5.92501C12.8228 2.43877 9.82436 1.19939 7.49753 1.19939Z" fill="#5F401A"/>
</svg>
