<svg width="25" height="26" viewBox="0 0 25 26" fill="none" xmlns="http://www.w3.org/2000/svg">
<path d="M4.01529 25.1289C2.57251 25.1289 1.65789 24.6394 1.0782 24.0597C-0.0554187 22.9261 -0.854102 20.5171 1.69653 15.403L2.81727 13.1744C2.95897 12.8781 2.95897 12.2598 2.81727 11.9635L1.69653 9.7349C-0.866984 4.62075 -0.0554187 2.19893 1.0782 1.0782C2.19893 -0.0554187 4.62075 -0.866984 9.72202 1.69653L20.7489 7.21003C23.4928 8.57552 25 10.4821 25 12.5689C25 14.6558 23.4928 16.5624 20.7618 17.9279L9.7349 23.4413C7.23579 24.6909 5.38078 25.1289 4.01529 25.1289ZM4.01529 1.94129C3.31966 1.94129 2.77862 2.10876 2.44369 2.44369C1.5033 3.37119 1.87688 5.78013 3.42272 8.85892L4.54345 11.1004C4.95568 11.9377 4.95568 13.2002 4.54345 14.0375L3.42272 16.2661C1.87688 19.3577 1.5033 21.7538 2.44369 22.6813C3.37119 23.6217 5.78013 23.2481 8.87181 21.7023L19.8987 16.1888C21.9212 15.184 23.0677 13.8571 23.0677 12.5561C23.0677 11.255 21.9083 9.92813 19.8858 8.92333L8.85892 3.42272C6.90086 2.44369 5.21332 1.94129 4.01529 1.94129Z" fill="#5F401A"/>
<path d="M11.0104 13.5353H4.05404C3.52588 13.5353 3.08789 13.0973 3.08789 12.5692C3.08789 12.041 3.52588 11.603 4.05404 11.603H11.0104C11.5385 11.603 11.9765 12.041 11.9765 12.5692C11.9765 13.0973 11.5385 13.5353 11.0104 13.5353Z" fill="#5F401A"/>
</svg>
